<svg width="91" height="98" viewBox="0 0 91 98" fill="none" xmlns="http://www.w3.org/2000/svg">
<path d="M15.561 72.2639C14.4605 73.9339 14.696 76.4843 16.7 77.8049L30.06 86.6089C32.0639 87.9296 34.5004 87.14 35.601 85.47L37.802 82.13L17.762 68.9239L15.561 72.2639ZM67.4002 15.4071C54.3742 6.82314 37.1971 10.354 28.6132 23.3799C23.3308 31.3959 22.7166 41.0511 26.0874 49.0209L21.0251 56.7029C19.9246 58.3729 20.16 60.9233 22.164 62.2439L42.204 75.45C44.208 76.7706 46.6445 75.981 47.745 74.311L52.8073 66.629C61.6806 66.2489 70.3107 61.8761 75.3731 54.1941C83.957 41.1681 80.4262 23.991 67.4002 15.4071Z" fill="#FFEDA7"/>
<circle cx="48" cy="34" r="15" fill="#7B7B7B" fill-opacity="0.04"/>
<circle cx="56" cy="34" r="15" fill="black" fill-opacity="0.04"/>
</svg>
