<svg width="67" height="78" viewBox="0 0 67 78" fill="none" xmlns="http://www.w3.org/2000/svg">
<path d="M1.561 62.2639C0.460499 63.9339 0.69599 66.4843 2.69998 67.8049L16.06 76.6089C18.0639 77.9296 20.5004 77.14 21.601 75.47L23.802 72.13L3.76202 58.9239L1.561 62.2639ZM53.4002 5.40708C40.3742 -3.17686 23.1971 0.353974 14.6132 13.3799C9.33075 21.3959 8.71662 31.0511 12.0874 39.0209L7.02506 46.7029C5.92455 48.3729 6.16005 50.9233 8.16404 52.2439L28.204 65.45C30.208 66.7706 32.6445 65.981 33.745 64.311L38.8073 56.629C47.6806 56.2489 56.3107 51.8761 61.3731 44.1941C69.957 31.1681 66.4262 13.991 53.4002 5.40708Z" fill="#FFEDA7"/>
</svg>
